<svg xmlns="http://www.w3.org/2000/svg" viewBox="-300 -350 2000 2000" fill="#fff"><g transform="rotate(315, 900, 100)" opacity="0.02"><path d="M1 1h701v536h39v16h-39v35h34v15h-34v40h40v15h-40v43H1V1Zm6 5v690h689v-38h-43V537h43V6H7Zm662 547v35h27v-35h-27Zm0 50v40h27v-40h-27Z"/><path d="M46 537h25l2.491 7.397c2.733 8.115 5.467 16.23 8.202 24.343l4.967 14.742c1.6 4.754 3.202 9.506 4.805 14.259l1.82 5.408C96.76 613.469 100.29 623.762 104 634c1.646-2.47 2.496-4.11 3.41-6.84l.795-2.35.852-2.564c.3-.895.602-1.79.912-2.71.995-2.96 1.984-5.922 2.972-8.884l2.07-6.16c1.816-5.409 3.628-10.819 5.438-16.23 2.9-8.664 5.808-17.326 8.716-25.988 1.017-3.032 2.032-6.065 3.047-9.098l1.86-5.551.858-2.571c1.957-5.827 1.957-5.827 3.07-8.054h24v121h-16l-1-94-9.25 27.875C128.392 613.999 120.912 636.066 113 658H96c-3.219-7.815-6.015-15.72-8.703-23.73l-1.338-3.962a9439.23 9439.23 0 0 1-3.502-10.395c-1.85-5.496-3.703-10.99-5.558-16.485-.632-1.875-1.263-3.75-1.893-5.626C71.086 586.172 67.033 574.595 63 563v95H46V537ZM278 545c12.265 9.714 17.697 24.53 19.684 39.602 1.486 15.97.444 33.228-7.684 47.398l-1.633 2.863c-7.474 12.384-17.799 20.77-31.742 25.137-6.166 1.281-12.412 1.306-18.688 1.375l-3.046.043c-14.345-.094-28.299-5.032-38.793-15.031-13.323-15.158-17.186-34.63-16.25-54.321 1.062-14.41 5.496-27.431 14.152-39.066l2.25-3.125c20.383-21.309 58.514-21.66 81.75-4.875Zm-68.96 16.645C197.635 574.817 196.838 592.465 198 609c1.393 10.029 6.065 21.489 14 28l2.188 2.063c10.276 7.079 23.463 8.605 35.593 6.44 8.797-2.402 16.167-6.794 21.219-14.503 8.86-16.183 12.45-35.041 7.438-53.125-4.465-12.05-11.36-20.83-23.125-26.25-16.558-5.974-33.64-1.877-46.274 10.02ZM317 537c70.845 0 70.845 0 84.25 12.625 14.375 15.253 16.43 34.692 15.886 54.702-.793 15.566-7.444 32.714-18.886 43.548C376.296 665.583 340.81 658 317 658V537Zm17 15v91c31.605 2.382 31.605 2.382 55.656-10.605 9.206-10.638 10.943-27.193 10.121-40.625-.732-8.974-2.584-16.706-6.777-24.77l-1.75-3.375C385.057 556.4 378.316 554.541 369 552h-35ZM242.125 332.875c6.364 4.76 11.152 10.23 12.875 18.125.509 4.342.772 8.63 1 13h-16l-2-6c-2.599-6.733-4.807-11.189-11.5-14.25-9.54-3.986-22.035-4.62-31.738-.664-4.604 2.389-7.612 5.185-9.762 9.914-1.325 5.678-.896 9.583.82 15.117 1.685 2.689 3.146 2.948 6.18 3.883l1.987.615c2.435.738 4.878 1.44 7.326 2.135l2.759.793c6.092 1.726 12.21 3.261 18.372 4.715 26.109 6.21 26.109 6.21 33.556 17.742 5.076 9.359 4.578 19.953 2 30-3.113 8.64-9.05 13.747-17 18-9.79 4.58-19.036 6.377-29.813 6.313l-2.934-.015c-13.775-.226-25.125-3.804-35.398-13.216-7.788-8.74-10.211-18.685-9.855-30.082h16l1.125 5.438c1.788 6.987 4.103 12.68 9.96 17.156 10.813 6.178 24.099 6.505 35.915 3.406 3.13-1.127 6.059-2.454 9-4l2.133-.84c3.19-1.983 3.474-4.949 4.398-8.426.947-5.525.418-11.867-2.531-16.734a77.704 77.704 0 0 0-5-2l-2.277-.914c-9.306-3.563-18.947-5.763-28.62-8.083-26.343-6.35-26.343-6.35-32.318-15.956-4.293-8.25-5.26-17.01-3.031-26.133 3.598-10.3 9.475-18.014 19.184-23.226 17.034-7.567 39.457-5.533 55.187 4.187ZM355 334c2.938 2.563 2.938 2.563 5 5l2.125 2.25c4.743 6.956 5.354 14.522 5.875 22.75h-17l-1.5-6.063c-2.365-7.626-5.575-11.164-12.422-15.019-8.43-3.578-20.627-3.285-29.328-.73-4.898 2.023-7.677 5.185-10.563 9.562-2 5.475-2 10.025 0 15.5 7.785 7.611 21.57 9.38 31.938 11.813 30.876 7.283 30.876 7.283 37.508 17.437 5.124 9.838 5.643 20.309 3.18 31.086-3.017 8.962-9.368 14.706-17.641 18.82-9.924 4.377-19.305 5.97-30.11 5.906l-2.926-.012c-6.758-.108-12.836-.69-19.136-3.3l-2.074-.773C289.002 444.404 281.14 436.754 277 428c-2.371-6.166-2.56-12.46-3-19h17l.75 4.5c1.556 7.6 4.055 13.396 10.281 18.25 9.654 6.13 21.96 5.99 32.848 4.043 6.941-1.764 13.293-4.469 17.121-10.793.952-2.857 1.195-4.835 1.25-7.813l.078-2.519c-.426-3.462-1.477-5.715-3.328-8.668-8.024-6.143-18.85-8.06-28.468-10.387-32.19-7.797-32.19-7.797-39.884-18.492-4.908-8.74-4.224-18.717-1.648-28.121 4.255-10.104 10.762-16.747 20.668-21.2 17.69-6.521 38.682-4.103 54.332 6.2ZM839.258 543.598c6.752 5.468 9.96 11.934 11.742 20.402.145 3.023.093 5.97 0 9h-16l-1.688-5.625c-2.047-6.043-3.665-10.322-9.457-13.582-10.492-4.924-22.801-5.614-33.8-1.773-3.077 1.468-4.962 3.316-7.055 5.98l-1.813 2.125c-2.174 5.266-1.902 11.125-.48 16.594 3.09 5.452 13.59 6.636 19.293 8.281 5.884 1.536 11.799 2.946 17.715 4.355 13.764 3.354 26.32 6.512 34.094 19.243 4.39 8.85 4.104 19.683 1.437 29.05-.923 2.264-1.966 4.272-3.246 6.352l-1.105 1.855c-5.759 8.027-17.818 12.68-27.165 14.711-5.266.613-10.494.754-15.793.809l-3.046.043c-12.913-.084-24.57-3.898-34.258-12.617-8.287-9.14-9.904-18.892-10.633-30.801h16l.953 3.324 1.297 4.364.621 2.185c1.624 5.387 3.54 9.34 8.32 12.639 11.575 5.74 23.366 6.951 35.97 3.664 8.184-2.746 8.184-2.746 13.796-8.961 2.453-5.814 2.696-10.69 1.106-16.84-4.083-6.68-11.606-8.819-18.916-10.643l-2.835-.67c-2.028-.508-4.057-1.017-6.085-1.527L802 604c-29.76-7.366-29.76-7.366-37-18-4.402-8.804-3.663-18.667-1.164-27.902C767.21 549.116 773.448 542.26 782 538c18.198-7.622 41.102-5.834 57.258 5.598ZM438 537h18l.044 7.46c.05 8.163.117 16.325.192 24.487.044 4.946.084 9.891.11 14.837.027 4.779.067 9.557.117 14.336.017 1.817.028 3.634.035 5.451.05 13.176.403 24.984 9.502 35.429 6.357 5.267 14.972 6.704 23 6 8.164-1.028 14.422-3.054 20.25-9.125 7.403-9.659 6.223-21.9 6.262-33.445a3487.24 3487.24 0 0 0 .158-20.52c.03-5.06.076-10.122.121-15.183.086-9.91.152-19.818.209-29.727h18c.068 10.007.123 20.013.155 30.02.016 4.649.037 9.297.071 13.945.033 4.5.05 9 .059 13.5.005 1.702.016 3.405.032 5.107.08 8.69-.171 17.111-1.652 25.69l-.355 2.065c-1.744 9.057-6.097 18.362-13.318 24.333-14.422 9.553-29.69 11.032-46.617 8.88-10.84-2.4-20.707-8.34-26.809-17.75-8.446-15.49-7.724-33.674-7.664-50.81l.005-4.787c.003-4.154.013-8.308.024-12.462.01-4.257.015-8.515.02-12.772.01-8.32.028-16.64.049-24.959ZM127.813 331.75c10.207 7.515 16.982 16.353 19.562 29L148 365h-17l-3-6.563c-3.672-7.548-7.966-12.976-15.875-16.375-10.574-2.913-22.819-2.386-32.64 2.458C68.144 351.276 64.26 360.514 61 373c-3.665 16.281-1.74 34.713 7 49 5.1 7.361 11.186 11.058 20 13 9.712 1.75 18.672.771 27.344-4.098C117 430 117 430 120 429c1.089-1.864 1.089-1.864 2-4a302.547 302.547 0 0 1 2.375-3.5c2.823-4.418 4.304-9.068 5.828-14.059C131 405 131 405 132 404c2.863-.073 5.7-.092 8.563-.063l2.443.014c1.998.012 3.996.03 5.994.049-1.63 9.66-4.045 17.5-9 26l-1.148 2.02c-6.826 10.722-18.777 16.47-30.79 19.293-16.648 2.757-32.718-.207-46.457-10.024-13.283-10.726-18.269-26.52-20.292-42.89-1.805-19.628 1.367-39.585 13.374-55.587 16.892-20.143 50.85-24.788 73.126-11.062ZM558 537h17v106h61v15h-78V537Z"/></g></svg>